0
SECTION
2
HEADER
9
$INSUNITS
70
4
9
$ACADVER
1
AC1014
9
$HANDSEED
5
FFFF
0
ENDSEC
0
SECTION
2
TABLES
0
TABLE
2
VPORT
5
8
100
AcDbSymbolTable
0
ENDTAB
0
TABLE
2
LTYPE
5
5
100
AcDbSymbolTable
0
LTYPE
5
14
100
AcDbSymbolTableRecord
100
AcDbLinetypeTableRecord
2
BYBLOCK
70
0
0
LTYPE
5
15
100
AcDbSymbolTableRecord
100
AcDbLinetypeTableRecord
2
BYLAYER
70
0
0
LTYPE
5
16
100
AcDbSymbolTableRecord
100
AcDbLinetypeTableRecord
2
DASHED
70
0
3
Dashed __ __ __ __ __ __ __ __ __ __ __ __ __ _
72
65
73
2
40
0.75
49
0.5
74
0
49
-0.25
74
0
0
ENDTAB
0
TABLE
2
LAYER
5
2
100
AcDbSymbolTable
70
2
0
LAYER
5
50
100
AcDbSymbolTableRecord
100
AcDbLayerTableRecord
2
0
70
0
62
7
6
CONTINUOUS
0
ENDTAB
0
TABLE
2
STYLE
5
3
100
AcDbSymbolTable
70
1
0
STYLE
5
11
100
AcDbSymbolTableRecord
100
AcDbTextStyleTableRecord
2
STANDARD
70
0
0
ENDTAB
0
TABLE
2
VIEW
5
6
100
AcDbSymbolTable
70
0
0
ENDTAB
0
TABLE
2
UCS
5
7
100
AcDbSymbolTable
70
0
0
ENDTAB
0
TABLE
2
APPID
5
9
100
AcDbSymbolTable
70
2
0
APPID
5
12
100
AcDbSymbolTableRecord
100
AcDbRegAppTableRecord
2
ACAD
70
0
0
ENDTAB
0
TABLE
2
DIMSTYLE
5
A
100
AcDbSymbolTable
70
1
0
ENDTAB
0
TABLE
2
BLOCK_RECORD
5
1
100
AcDbSymbolTable
70
1
0
BLOCK_RECORD
5
1F
100
AcDbSymbolTableRecord
100
AcDbBlockTableRecord
2
*MODEL_SPACE
0
BLOCK_RECORD
5
1B
100
AcDbSymbolTableRecord
100
AcDbBlockTableRecord
2
*PAPER_SPACE
0
ENDTAB
0
ENDSEC
0
SECTION
2
BLOCKS
0
BLOCK
5
20
100
AcDbEntity
100
AcDbBlockBegin
2
*MODEL_SPACE
0
ENDBLK
5
21
100
AcDbEntity
100
AcDbBlockEnd
0
BLOCK
5
1C
100
AcDbEntity
100
AcDbBlockBegin
2
*PAPER_SPACE
0
ENDBLK
5
1D
100
AcDbEntity
100
AcDbBlockEnd
0
ENDSEC
0
SECTION
2
ENTITIES
0
CIRCLE
5
100
100
AcDbEntity
8
0
100
AcDbCircle
10
113.64141353810631
20
112.99761898977351
30
0
40
1.7499999999999893
210
0
220
-0
230
1
0
CIRCLE
5
101
100
AcDbEntity
8
0
100
AcDbCircle
10
-96.436032311932962
20
84.448438006444235
30
0
40
1.7499999999999893
210
0
220
-0
230
1
0
CIRCLE
5
102
100
AcDbEntity
8
0
100
AcDbCircle
10
33.327006601889472
20
-83.209376370174922
30
0
40
1.749999999999998
210
0
220
-0
230
1
0
CIRCLE
5
103
100
AcDbEntity
8
0
100
AcDbCircle
10
113.64141353810624
20
-36.839831905745044
30
0
40
1.7499999999999893
210
0
220
-0
230
1
0
CIRCLE
5
104
100
AcDbEntity
8
0
100
AcDbCircle
10
-96.436032311933033
20
-8.2906509224155389
30
0
40
1.7500000000000071
210
0
220
-0
230
1
0
CIRCLE
5
105
100
AcDbEntity
8
0
100
AcDbCircle
10
33.327006601889536
20
159.36716345420348
30
0
40
1.749999999999998
210
0
220
-0
230
1
0
CIRCLE
5
106
100
AcDbEntity
8
0
100
AcDbCircle
10
60.341492283467687
20
38.078893542013631
30
0
40
7.4999999999999902
210
-2.4651903288156624e-32
220
-0
230
1
0
LWPOLYLINE
5
107
100
AcDbEntity
8
0
100
AcDbPolyline
90
24
70
1
43
0.0
10
75.449024902520861
20
-104.68922758648219
10
75.562608876699215
20
-85.160814542993947
10
95.330518198375941
20
-73.747806774807728
10
112.50814715641098
20
-83.506293260020215
10
124.90000792811074
20
-76.351849107718991
10
127.71976105273119
20
-71.920810357078423
10
126.90313618442053
20
148.07703294685612
10
124.31384693059363
20
152.63489651869855
10
111.18250121062148
20
160.21628250494646
10
94.213607432276149
20
150.55044259030353
10
74.445698110599409
20
161.96345035848969
10
74.307980830262906
20
181.71895665553751
10
61.91612005856328
20
188.87340080783866
10
56.668851373045051
20
189.09985927084023
10
-133.4465572717952
20
78.393719737553909
10
-136.09913828508095
20
73.872397680072524
10
-136.09913828508098
20
58.709625707576635
10
-119.2438284809139
20
48.847052578731336
10
-119.24382848091389
20
26.021037042358991
10
-136.28374015861252
20
16.024017230523558
10
-136.28374015861252
20
1.7151289259212876
10
-133.85622459771474
20
-2.9423682877208659
10
57.075808915436227
20
-112.23407205836908
10
62.317679182548886
20
-112.27061357273014
0
CIRCLE
5
108
100
AcDbEntity
8
0
100
AcDbCircle
10
16.844129276020475
20
38.078893542013631
30
0
40
20
210
0
220
0
230
1
0
CIRCLE
5
109
100
AcDbEntity
8
0
100
AcDbCircle
10
-100.95899431690638
20
52.640231210937742
30
0
40
2.24999968376423
210
-6.9034126855749184e-92
220
3.8893845486632136e-62
230
1
0
CIRCLE
5
110
100
AcDbEntity
8
0
100
AcDbCircle
10
-73.458990502209119
20
22.640227096561553
30
0
40
2.25000013907751
210
-2.4651903288156624e-32
220
-4.3755576172461118e-62
230
1
0
CIRCLE
5
111
100
AcDbEntity
8
0
100
AcDbCircle
10
-100.95899431690641
20
22.640227551874858
30
0
40
2.2499996837642473
210
-6.9034126855749225e-92
220
3.8893845486632144e-62
230
1
0
CIRCLE
5
112
100
AcDbEntity
8
0
100
AcDbCircle
10
-121.85018960400852
20
7.5848702146987055
30
0
40
4.1250000000000142
210
-0
220
0
230
1
0
CIRCLE
5
113
100
AcDbEntity
8
0
100
AcDbCircle
10
-73.45899050220909
20
52.640231666250983
30
0
40
2.25000013907751
210
-2.4651903288156624e-32
220
-4.3755576172461118e-62
230
1
0
CIRCLE
5
114
100
AcDbEntity
8
0
100
AcDbCircle
10
-121.85018960400845
20
67.553568036486638
30
0
40
4.1249999999999964
210
-0
220
0
230
1
0
CIRCLE
5
115
100
AcDbEntity
8
0
100
AcDbCircle
10
88.35617940685546
20
132.81872238418421
30
0
40
2.24999968376423
210
6.162975822039152e-33
220
1.0674587249590385e-32
230
1
0
CIRCLE
5
116
100
AcDbEntity
8
0
100
AcDbCircle
10
63.135202738112412
20
-71.222272969081018
30
0
40
2.24999968376423
210
-6.1629758220391602e-33
220
1.067458724959038e-32
230
1
0
CIRCLE
5
117
100
AcDbEntity
8
0
100
AcDbCircle
10
48.625411822819359
20
124.00302253367549
30
0
40
2.2500001390775108
210
0
220
-0
230
1
0
CIRCLE
5
118
100
AcDbEntity
8
0
100
AcDbCircle
10
75.365966507451205
20
-32.406569004196129
30
0
40
2.2500001390775108
210
6.1629758220391616e-33
220
-1.067458724959038e-32
230
1
0
CIRCLE
5
119
100
AcDbEntity
8
0
100
AcDbCircle
10
74.606177893819648
20
109.00302024883075
30
0
40
2.2500001390775108
210
0
220
-0
230
1
0
CIRCLE
5
120
100
AcDbEntity
8
0
100
AcDbCircle
10
49.385200436450901
20
-47.406571289040812
30
0
40
2.2500001390775108
210
6.1629758220391616e-33
220
-1.067458724959038e-32
230
1
0
CIRCLE
5
121
100
AcDbEntity
8
0
100
AcDbCircle
10
111.7171055965258
20
143.45435980546191
30
0
40
4.1249999999999973
210
4.5116114275512348e-33
220
-1.6837563071629535e-32
230
1
0
CIRCLE
5
122
100
AcDbEntity
8
0
100
AcDbCircle
10
60.665471835544132
20
-96.771247215907593
30
0
40
4.1249999999999956
210
6.1629758220391616e-33
220
-1.067458724959038e-32
230
1
0
CIRCLE
5
123
100
AcDbEntity
8
0
100
AcDbCircle
10
59.782689850984944
20
173.43870871635588
30
0
40
4.1250000000000151
210
0
220
-0
230
1
0
CIRCLE
5
124
100
AcDbEntity
8
0
100
AcDbCircle
10
112.59988758108504
20
-66.786898305013679
30
0
40
4.1250000000000133
210
-4.5116114275512191e-33
220
-1.683756307162954e-32
230
1
0
CIRCLE
5
125
100
AcDbEntity
8
0
100
AcDbCircle
10
62.375414124480891
20
147.81872421371565
30
0
40
2.2499996837642477
210
1.0674587249590385e-32
220
-6.1629758220391513e-33
230
1
0
CIRCLE
5
126
100
AcDbEntity
8
0
100
AcDbCircle
10
89.115968020486989
20
-56.222271139549576
30
0
40
2.2499996837642473
210
-6.1629758220391616e-33
220
1.0674587249590384e-32
230
1
0
ENDSEC
0
SECTION
2
OBJECTS
0
DICTIONARY
5
C
100
AcDbDictionary
3
ACAD_GROUP
350
D
3
ACAD_MLINESTYLE
350
17
0
DICTIONARY
5
D
100
AcDbDictionary
0
DICTIONARY
5
1A
330
C
100
AcDbDictionary
0
DICTIONARY
5
17
100
AcDbDictionary
0
ENDSEC
0
EOF
