0
SECTION
2
HEADER
9
$INSUNITS
70
4
9
$ACADVER
1
AC1014
9
$HANDSEED
5
FFFF
0
ENDSEC
0
SECTION
2
TABLES
0
TABLE
2
VPORT
5
8
100
AcDbSymbolTable
0
ENDTAB
0
TABLE
2
LTYPE
5
5
100
AcDbSymbolTable
0
LTYPE
5
14
100
AcDbSymbolTableRecord
100
AcDbLinetypeTableRecord
2
BYBLOCK
70
0
0
LTYPE
5
15
100
AcDbSymbolTableRecord
100
AcDbLinetypeTableRecord
2
BYLAYER
70
0
0
LTYPE
5
16
100
AcDbSymbolTableRecord
100
AcDbLinetypeTableRecord
2
DASHED
70
0
3
Dashed __ __ __ __ __ __ __ __ __ __ __ __ __ _
72
65
73
2
40
0.75
49
0.5
74
0
49
-0.25
74
0
0
ENDTAB
0
TABLE
2
LAYER
5
2
100
AcDbSymbolTable
70
2
0
LAYER
5
50
100
AcDbSymbolTableRecord
100
AcDbLayerTableRecord
2
0
70
0
62
7
6
CONTINUOUS
0
ENDTAB
0
TABLE
2
STYLE
5
3
100
AcDbSymbolTable
70
1
0
STYLE
5
11
100
AcDbSymbolTableRecord
100
AcDbTextStyleTableRecord
2
STANDARD
70
0
0
ENDTAB
0
TABLE
2
VIEW
5
6
100
AcDbSymbolTable
70
0
0
ENDTAB
0
TABLE
2
UCS
5
7
100
AcDbSymbolTable
70
0
0
ENDTAB
0
TABLE
2
APPID
5
9
100
AcDbSymbolTable
70
2
0
APPID
5
12
100
AcDbSymbolTableRecord
100
AcDbRegAppTableRecord
2
ACAD
70
0
0
ENDTAB
0
TABLE
2
DIMSTYLE
5
A
100
AcDbSymbolTable
70
1
0
ENDTAB
0
TABLE
2
BLOCK_RECORD
5
1
100
AcDbSymbolTable
70
1
0
BLOCK_RECORD
5
1F
100
AcDbSymbolTableRecord
100
AcDbBlockTableRecord
2
*MODEL_SPACE
0
BLOCK_RECORD
5
1B
100
AcDbSymbolTableRecord
100
AcDbBlockTableRecord
2
*PAPER_SPACE
0
ENDTAB
0
ENDSEC
0
SECTION
2
BLOCKS
0
BLOCK
5
20
100
AcDbEntity
100
AcDbBlockBegin
2
*MODEL_SPACE
0
ENDBLK
5
21
100
AcDbEntity
100
AcDbBlockEnd
0
BLOCK
5
1C
100
AcDbEntity
100
AcDbBlockBegin
2
*PAPER_SPACE
0
ENDBLK
5
1D
100
AcDbEntity
100
AcDbBlockEnd
0
ENDSEC
0
SECTION
2
ENTITIES
0
CIRCLE
5
100
100
AcDbEntity
8
0
100
AcDbCircle
10
-102.55368320815954
20
-94.242155190790271
30
0
40
1.9999999999999929
210
0
220
-0
230
1
0
CIRCLE
5
101
100
AcDbEntity
8
0
100
AcDbCircle
10
127.75806868923391
20
37.429390319323069
30
0
40
1.9999999999999929
210
-0
220
0
230
1
0
CIRCLE
5
102
100
AcDbEntity
8
0
100
AcDbCircle
10
-101.42871062677978
20
171.04944549750809
30
0
40
1.9999999999999929
210
0
220
-0
230
1
0
CIRCLE
5
103
100
AcDbEntity
8
0
100
AcDbCircle
10
-30.871863558823502
20
121.38319943293824
30
0
40
2.25000013907751
210
0
220
-0
230
1
0
CIRCLE
5
104
100
AcDbEntity
8
0
100
AcDbCircle
10
-17.121861257162085
20
145.19890111297832
30
0
40
2.24999968376423
210
0
220
-0
230
1
0
CIRCLE
5
105
100
AcDbEntity
8
0
100
AcDbCircle
10
-4.8910974878232913
20
106.38319714809361
30
0
40
2.2500001390775113
210
0
220
-0
230
1
0
CIRCLE
5
106
100
AcDbEntity
8
0
100
AcDbCircle
10
8.8589040252123965
20
130.19889928344699
30
0
40
2.2499996837642504
210
0
220
-0
230
1
0
CIRCLE
5
107
100
AcDbEntity
8
0
100
AcDbCircle
10
-71.699181843993756
20
-71.222272969081018
30
0
40
2.24999968376423
210
-0
220
0
230
1
0
CIRCLE
5
108
100
AcDbEntity
8
0
100
AcDbCircle
10
-96.920158512736805
20
132.81872238418421
30
0
40
2.24999968376423
210
0
220
-0
230
1
0
CIRCLE
5
109
100
AcDbEntity
8
0
100
AcDbCircle
10
-83.929945613332549
20
-32.406569004196129
30
0
40
2.2500001390775108
210
-0
220
0
230
1
0
CIRCLE
5
110
100
AcDbEntity
8
0
100
AcDbCircle
10
-57.189390928700703
20
124.00302253367549
30
0
40
2.2500001390775108
210
0
220
-0
230
1
0
CIRCLE
5
111
100
AcDbEntity
8
0
100
AcDbCircle
10
-121.16386668696637
20
-66.786898305013679
30
0
40
4.1250000000000133
210
-0
220
0
230
1
0
CIRCLE
5
112
100
AcDbEntity
8
0
100
AcDbCircle
10
-68.346668956866296
20
173.43870871635588
30
0
40
4.1250000000000151
210
0
220
-0
230
1
0
CIRCLE
5
113
100
AcDbEntity
8
0
100
AcDbCircle
10
-97.679947126368333
20
-56.222271139549576
30
0
40
2.2499996837642473
210
-0
220
0
230
1
0
CIRCLE
5
114
100
AcDbEntity
8
0
100
AcDbCircle
10
-70.939393230362242
20
147.81872421371565
30
0
40
2.2499996837642477
210
0
220
-0
230
1
0
CIRCLE
5
115
100
AcDbEntity
8
0
100
AcDbCircle
10
-57.949179542332246
20
-47.406571289040812
30
0
40
2.2500001390775108
210
-0
220
0
230
1
0
CIRCLE
5
116
100
AcDbEntity
8
0
100
AcDbCircle
10
-83.170156999700993
20
109.00302024883075
30
0
40
2.2500001390775108
210
0
220
-0
230
1
0
CIRCLE
5
117
100
AcDbEntity
8
0
100
AcDbCircle
10
-69.229450941425483
20
-96.771247215907593
30
0
40
4.1249999999999956
210
-0
220
0
230
1
0
CIRCLE
5
118
100
AcDbEntity
8
0
100
AcDbCircle
10
-120.28108470240713
20
143.45435980546191
30
0
40
4.1249999999999973
210
0
220
-0
230
1
0
CIRCLE
5
119
100
AcDbEntity
8
0
100
AcDbCircle
10
113.2862104981271
20
67.553568036486638
30
0
40
4.1249999999999964
210
0
220
-0
230
1
0
CIRCLE
5
120
100
AcDbEntity
8
0
100
AcDbCircle
10
64.895011396327732
20
52.640231666250983
30
0
40
2.25000013907751
210
0
220
-0
230
1
0
CIRCLE
5
121
100
AcDbEntity
8
0
100
AcDbCircle
10
113.28621049812718
20
7.5848702146987055
30
0
40
4.1250000000000142
210
0
220
-0
230
1
0
CIRCLE
5
122
100
AcDbEntity
8
0
100
AcDbCircle
10
92.395015211025083
20
22.640227551874858
30
0
40
2.2499996837642473
210
0
220
-0
230
1
0
CIRCLE
5
123
100
AcDbEntity
8
0
100
AcDbCircle
10
64.895011396327774
20
22.640227096561553
30
0
40
2.25000013907751
210
0
220
-0
230
1
0
CIRCLE
5
124
100
AcDbEntity
8
0
100
AcDbCircle
10
92.39501521102504
20
52.640231210937742
30
0
40
2.24999968376423
210
0
220
-0
230
1
0
CIRCLE
5
125
100
AcDbEntity
8
0
100
AcDbCircle
10
-25.408108381901826
20
38.078893542013631
30
0
40
20
210
0
220
-0
230
1
0
LWPOLYLINE
5
126
100
AcDbEntity
8
0
100
AcDbPolyline
90
24
70
1
43
0.0
10
-65.232830478926402
20
189.09985927084023
10
-70.480099164444624
20
188.87340080783866
10
-85.41237014569856
20
180.25225013719927
10
-91.499479637590156
20
183.71029291223817
10
-117.35794161596939
20
168.78090292819124
10
-117.39987634166198
20
161.57109494150228
10
-132.87782603647497
20
152.63489651869855
10
-135.46711529030188
20
148.07703294685612
10
-136.28374015861252
20
-71.920810357078423
10
-133.46398703399208
20
-76.351849107718976
10
-118.53171605273818
20
-84.972999778358371
10
-118.48291419734927
20
-91.973612621473364
10
-92.624452218970077
20
-106.90300260552033
10
-86.359607983243194
20
-103.33441514992636
10
-70.881658288430231
20
-112.27061357273016
10
-65.639788021317571
20
-112.23407205836907
10
125.2922454918334
20
-2.9423682877208535
10
127.71976105273114
20
1.7151289259212987
10
127.71976105273114
20
18.957430267200053
10
133.75806868923388
20
22.500000335276127
10
133.75806868923388
20
52.358780303370018
10
127.53515917919962
20
56.000000834465027
10
127.53515917919962
20
73.87239768007251
10
124.88257816591386
20
78.393719737553909
0
ENDSEC
0
SECTION
2
OBJECTS
0
DICTIONARY
5
C
100
AcDbDictionary
3
ACAD_GROUP
350
D
3
ACAD_MLINESTYLE
350
17
0
DICTIONARY
5
D
100
AcDbDictionary
0
DICTIONARY
5
1A
330
C
100
AcDbDictionary
0
DICTIONARY
5
17
100
AcDbDictionary
0
ENDSEC
0
EOF
